<svg width="24" height="24" viewBox="0 0 24 24" fill="none" xmlns="http://www.w3.org/2000/svg">
<g clipPath="url(#clip0_81_50083)">
<path d="M3 17.25C3.00119 18.2442 3.39666 19.1973 4.09966 19.9003C4.80267 20.6033 5.7558 20.9988 6.75 21H17.25C18.2442 20.9988 19.1973 20.6033 19.9003 19.9003C20.6033 19.1973 20.9988 18.2442 21 17.25V10.5H3V17.25ZM15.75 13.875C15.9725 13.875 16.19 13.941 16.375 14.0646C16.56 14.1882 16.7042 14.3639 16.7894 14.5695C16.8745 14.775 16.8968 15.0012 16.8534 15.2195C16.81 15.4377 16.7028 15.6382 16.5455 15.7955C16.3882 15.9528 16.1877 16.06 15.9695 16.1034C15.7512 16.1468 15.525 16.1245 15.3195 16.0394C15.1139 15.9542 14.9382 15.81 14.8146 15.625C14.691 15.44 14.625 15.2225 14.625 15C14.625 14.7016 14.7435 14.4155 14.9545 14.2045C15.1655 13.9935 15.4516 13.875 15.75 13.875ZM12 13.875C12.2225 13.875 12.44 13.941 12.625 14.0646C12.81 14.1882 12.9542 14.3639 13.0394 14.5695C13.1245 14.775 13.1468 15.0012 13.1034 15.2195C13.06 15.4377 12.9528 15.6382 12.7955 15.7955C12.6382 15.9528 12.4377 16.06 12.2195 16.1034C12.0012 16.1468 11.775 16.1245 11.5695 16.0394C11.3639 15.9542 11.1882 15.81 11.0646 15.625C10.941 15.44 10.875 15.2225 10.875 15C10.875 14.7016 10.9935 14.4155 11.2045 14.2045C11.4155 13.9935 11.7016 13.875 12 13.875ZM8.25 13.875C8.4725 13.875 8.69001 13.941 8.87502 14.0646C9.06002 14.1882 9.20422 14.3639 9.28936 14.5695C9.37451 14.775 9.39679 15.0012 9.35338 15.2195C9.30998 15.4377 9.20283 15.6382 9.0455 15.7955C8.88816 15.9528 8.68771 16.06 8.46948 16.1034C8.25125 16.1468 8.02505 16.1245 7.81948 16.0394C7.61391 15.9542 7.43821 15.81 7.3146 15.625C7.19098 15.44 7.125 15.2225 7.125 15C7.125 14.7016 7.24353 14.4155 7.4545 14.2045C7.66548 13.9935 7.95163 13.875 8.25 13.875Z" fill="#858D9D"/>
<path d="M17.25 4.5H16.5V3.75C16.5 3.55109 16.421 3.36032 16.2803 3.21967C16.1397 3.07902 15.9489 3 15.75 3C15.5511 3 15.3603 3.07902 15.2197 3.21967C15.079 3.36032 15 3.55109 15 3.75V4.5H9V3.75C9 3.55109 8.92098 3.36032 8.78033 3.21967C8.63968 3.07902 8.44891 3 8.25 3C8.05109 3 7.86032 3.07902 7.71967 3.21967C7.57902 3.36032 7.5 3.55109 7.5 3.75V4.5H6.75C5.7558 4.50119 4.80267 4.89666 4.09966 5.59966C3.39666 6.30267 3.00119 7.2558 3 8.25L3 9H21V8.25C20.9988 7.2558 20.6033 6.30267 19.9003 5.59966C19.1973 4.89666 18.2442 4.50119 17.25 4.5Z" fill="#858D9D"/>
</g>
<defs>
<clipPath id="clip0_81_50083">
<rect width="18" height="18" fill="white" transform="translate(3 3)"/>
</clipPath>
</defs>
</svg>
