<svg width="12" height="12" viewBox="0 0 12 12" fill="none" xmlns="http://www.w3.org/2000/svg">
<g clip-path="url(#clip0_113_39262)">
<path d="M6.64805 5.99997L11.3657 1.28234C11.4492 1.1959 11.4954 1.08012 11.4943 0.959951C11.4933 0.839777 11.4451 0.724821 11.3601 0.639843C11.2751 0.554864 11.1602 0.506662 11.04 0.505617C10.9198 0.504573 10.804 0.55077 10.7176 0.63426L5.99996 5.35188L1.28234 0.63426C1.1959 0.55077 1.08012 0.504573 0.959946 0.505617C0.839772 0.506662 0.724817 0.554864 0.639838 0.639843C0.554859 0.724821 0.506657 0.839777 0.505613 0.959951C0.504568 1.08012 0.550766 1.1959 0.634255 1.28234L5.35188 5.99997L0.634255 10.7176C0.548331 10.8035 0.500061 10.9201 0.500061 11.0416C0.500061 11.1632 0.548331 11.2797 0.634255 11.3657C0.720205 11.4516 0.836763 11.4999 0.958297 11.4999C1.07983 11.4999 1.19639 11.4516 1.28234 11.3657L5.99996 6.64805L10.7176 11.3657C10.8035 11.4516 10.9201 11.4999 11.0416 11.4999C11.1632 11.4999 11.2797 11.4516 11.3657 11.3657C11.4516 11.2797 11.4999 11.1632 11.4999 11.0416C11.4999 10.9201 11.4516 10.8035 11.3657 10.7176L6.64805 5.99997Z" fill="#858D9D"/>
</g>
<defs>
<clipPath id="clip0_113_39262">
<rect width="11" height="11" fill="white" transform="translate(0.5 0.5)"/>
</clipPath>
</defs>
</svg>
