<svg width="20" height="20" viewBox="0 0 20 20" fill="none" xmlns="http://www.w3.org/2000/svg">
<g clip-path="url(#clip0_96_57340)">
<path d="M2.66744 5.16716H4.49126C4.85123 6.49159 6.21668 7.27345 7.54112 6.91349C8.39175 6.68229 9.05625 6.01779 9.28744 5.16716H17.3326C17.7008 5.16716 17.9992 4.86872 17.9992 4.50057C17.9992 4.13242 17.7008 3.83398 17.3326 3.83398H9.28744C8.92748 2.50952 7.56202 1.72766 6.23759 2.08762C5.38695 2.31882 4.72246 2.98332 4.49126 3.83395H2.66744C2.29929 3.83395 2.00085 4.13239 2.00085 4.50054C2.00085 4.86869 2.29929 5.16716 2.66744 5.16716Z" fill="#858D9D"/>
<path d="M17.3326 9.33373H15.5088C15.1496 8.00949 13.7849 7.22719 12.4606 7.5864C11.6093 7.81735 10.9442 8.48238 10.7133 9.33373H2.66744C2.29929 9.33373 2.00085 9.63217 2.00085 10.0003C2.00085 10.3685 2.29929 10.6669 2.66744 10.6669H10.7133C11.0725 11.9912 12.4373 12.7734 13.7615 12.4142C14.6128 12.1833 15.2779 11.5183 15.5088 10.6669H17.3326C17.7008 10.6669 17.9992 10.3685 17.9992 10.0003C17.9992 9.63217 17.7008 9.33373 17.3326 9.33373Z" fill="#858D9D"/>
<path d="M17.3326 14.8329H9.28744C8.92748 13.5085 7.56202 12.7266 6.23759 13.0866C5.38695 13.3178 4.72246 13.9823 4.49126 14.8329H2.66744C2.29929 14.8329 2.00085 15.1313 2.00085 15.4995C2.00085 15.8676 2.29929 16.1661 2.66744 16.1661H4.49126C4.85123 17.4905 6.21668 18.2723 7.54112 17.9124C8.39175 17.6812 9.05625 17.0167 9.28744 16.1661H17.3326C17.7008 16.1661 17.9992 15.8676 17.9992 15.4995C17.9992 15.1313 17.7008 14.8329 17.3326 14.8329Z" fill="#858D9D"/>
</g>
<defs>
<clipPath id="clip0_96_57340">
<rect width="16" height="16" fill="white" transform="translate(2 2)"/>
</clipPath>
</defs>
</svg>
