
<svg width="6" height="10" viewBox="0 0 6 10" fill="none" xmlns="http://www.w3.org/2000/svg">
<path d="M4.86003 9.39334L1.14003 5.66667C1.01586 5.54176 0.946167 5.3728 0.946167 5.19667C0.946167 5.02055 1.01586 4.85158 1.14003 4.72667L4.86003 1.00001C4.95328 0.905986 5.07241 0.841866 5.20224 0.81582C5.33207 0.789773 5.46672 0.802981 5.58902 0.853759C5.71131 0.904537 5.81572 0.990584 5.88892 1.10093C5.96212 1.21128 6.0008 1.34092 6.00003 1.47334V8.92001C6.0008 9.05242 5.96212 9.18207 5.88892 9.29242C5.81572 9.40276 5.71131 9.48881 5.58902 9.53959C5.46672 9.59036 5.33207 9.60357 5.20224 9.57753C5.07241 9.55148 4.95328 9.48736 4.86003 9.39334Z" fill="#2086BF"/>
</svg>
