<svg width="40" height="40" viewBox="0 0 40 40" fill="none" xmlns="http://www.w3.org/2000/svg">
<rect width="40" height="40" rx="8" fill="#FEECEE"/>
<g clip-path="url(#clip0_113_39168)">
<path d="M27.3333 19.3333H20.6667V12.6667C20.6667 12.2985 20.3682 12 20 12C19.6318 12 19.3333 12.2985 19.3333 12.6667V19.3333H12.6667C12.2985 19.3333 12 19.6318 12 20C12 20.3682 12.2985 20.6667 12.6667 20.6667H19.3333V27.3333C19.3333 27.7015 19.6318 28 20 28C20.3682 28 20.6666 27.7015 20.6666 27.3333V20.6667H27.3333C27.7015 20.6667 27.9999 20.3682 27.9999 20C28 19.6318 27.7015 19.3333 27.3333 19.3333Z" fill="#EB3D4D"/>
</g>
<defs>
<clipPath id="clip0_113_39168">
<rect width="16" height="16" fill="white" transform="translate(12 12)"/>
</clipPath>
</defs>
</svg>
