<svg width="6" height="10" viewBox="0 0 6 10" fill="none" xmlns="http://www.w3.org/2000/svg">
<path d="M0 8.91933V1.47133C2.81495e-05 1.3395 0.0391425 1.21064 0.112399 1.10103C0.185655 0.991422 0.289764 0.905995 0.411563 0.855549C0.533363 0.805102 0.667384 0.7919 0.796686 0.817612C0.925988 0.843324 1.04476 0.906795 1.138 1L4.86199 4.724C4.98697 4.84902 5.05718 5.01856 5.05718 5.19533C5.05718 5.37211 4.98697 5.54165 4.86199 5.66667L1.138 9.39067C1.04476 9.48387 0.925988 9.54734 0.796686 9.57306C0.667384 9.59877 0.533363 9.58557 0.411563 9.53512C0.289764 9.48467 0.185655 9.39925 0.112399 9.28964C0.0391425 9.18003 2.81495e-05 9.05117 0 8.91933Z" fill="#2086BF"/>
</svg>
