<svg width="224" height="34" viewBox="0 0 224 34" fill="none" xmlns="http://www.w3.org/2000/svg">
<g clipPath="url(#clip0_96_54452)">
<path d="M0 25.5H8.5V32C8.5 33.1046 7.60457 34 6.5 34H2C0.89543 34 0 33.1046 0 32V25.5Z" fill="#2BB2FE"/>
<rect y="17" width="8.5" height="8.5" fill="#2BB2FE"/>
<path d="M0 10.5C0 9.39543 0.895431 8.5 2 8.5H8.5V17H0V10.5Z" fill="#2BB2FE"/>
<path d="M8.5 2C8.5 0.89543 9.39543 0 10.5 0H17V8.5H8.5V2Z" fill="#2086BF"/>
<rect x="8.5" y="17" width="8.5" height="8.5" fill="#2086BF"/>
<path d="M17 0H23.5C24.6046 0 25.5 0.895431 25.5 2V8.5H17V0Z" fill="#F9C80E"/>
<path d="M17 17H25.5V23.5C25.5 24.6046 24.6046 25.5 23.5 25.5H17V17Z" fill="#F9C80E"/>
<path d="M25.5 8.5H32C33.1046 8.5 34 9.39543 34 10.5V15C34 16.1046 33.1046 17 32 17H25.5V8.5Z" fill="#F9C80E"/>
</g>
<path d="M48.1 26V8.648H52.276L56.824 21.908L61.42 8.648H65.572V26H62.608V12.392L58.036 26H55.6L51.064 12.476V26H48.1ZM71.1837 29.96C70.3917 29.96 69.8357 29.896 69.5157 29.768C69.2037 29.648 69.0477 29.588 69.0477 29.588V27.716L70.2957 27.752C70.7997 27.776 71.2077 27.748 71.5197 27.668C71.8397 27.588 72.0877 27.476 72.2637 27.332C72.4397 27.196 72.5677 27.048 72.6477 26.888C72.7357 26.736 72.8037 26.604 72.8517 26.492L73.1757 25.58L68.3397 13.592H71.2557L74.5437 22.364L77.8317 13.592H80.6877L75.5757 26.456C75.1917 27.392 74.7757 28.112 74.3277 28.616C73.8877 29.128 73.4037 29.48 72.8757 29.672C72.3557 29.864 71.7917 29.96 71.1837 29.96ZM90.3482 15.656H87.5762L87.5882 22.772C87.5882 23.14 87.6282 23.412 87.7083 23.588C87.7962 23.756 87.9322 23.868 88.1162 23.924C88.3082 23.972 88.5642 23.996 88.8842 23.996H90.4082V25.844C90.2482 25.908 90.0042 25.964 89.6762 26.012C89.3563 26.068 88.9243 26.096 88.3802 26.096C87.3962 26.096 86.6322 25.968 86.0882 25.712C85.5522 25.448 85.1802 25.076 84.9722 24.596C84.7642 24.116 84.6602 23.544 84.6602 22.88V15.656H82.6442V13.592H84.7442L85.4762 9.908H87.5762V13.58H90.3482V15.656ZM95.3868 20.468C95.3788 21.172 95.4908 21.796 95.7228 22.34C95.9548 22.884 96.2988 23.312 96.7548 23.624C97.2108 23.928 97.7748 24.08 98.4468 24.08C99.1348 24.08 99.7308 23.928 100.235 23.624C100.747 23.312 101.087 22.84 101.255 22.208H103.931C103.787 23.072 103.443 23.804 102.899 24.404C102.355 25.004 101.695 25.46 100.919 25.772C100.151 26.084 99.3508 26.24 98.5188 26.24C97.3188 26.24 96.2628 25.988 95.3508 25.484C94.4468 24.972 93.7388 24.244 93.2268 23.3C92.7228 22.356 92.4708 21.232 92.4708 19.928C92.4708 18.656 92.7028 17.528 93.1668 16.544C93.6308 15.552 94.2988 14.772 95.1708 14.204C96.0508 13.636 97.1068 13.352 98.3388 13.352C99.5628 13.352 100.591 13.612 101.423 14.132C102.263 14.652 102.895 15.38 103.319 16.316C103.751 17.244 103.967 18.332 103.967 19.58V20.468H95.3868ZM95.3868 18.656H101.207C101.207 18.056 101.103 17.516 100.895 17.036C100.687 16.548 100.367 16.164 99.9348 15.884C99.5108 15.596 98.9748 15.452 98.3268 15.452C97.6868 15.452 97.1468 15.608 96.7068 15.92C96.2668 16.232 95.9348 16.636 95.7108 17.132C95.4868 17.62 95.3788 18.128 95.3868 18.656ZM112.076 13.352C113.044 13.352 113.896 13.544 114.632 13.928C115.368 14.312 115.956 14.844 116.396 15.524C116.844 16.204 117.112 16.976 117.2 17.84H114.704C114.648 17.464 114.512 17.108 114.296 16.772C114.08 16.428 113.788 16.152 113.42 15.944C113.052 15.728 112.608 15.62 112.088 15.62C111.16 15.62 110.404 15.964 109.82 16.652C109.244 17.34 108.956 18.396 108.956 19.82C108.956 21.132 109.232 22.176 109.784 22.952C110.336 23.728 111.124 24.116 112.148 24.116C112.66 24.116 113.096 24.004 113.456 23.78C113.824 23.548 114.112 23.264 114.32 22.928C114.536 22.584 114.676 22.24 114.74 21.896H117.164C117.092 22.736 116.828 23.484 116.372 24.14C115.924 24.796 115.332 25.312 114.596 25.688C113.868 26.056 113.028 26.24 112.076 26.24C110.94 26.24 109.928 25.992 109.04 25.496C108.16 24.992 107.468 24.264 106.964 23.312C106.46 22.352 106.208 21.196 106.208 19.844C106.208 18.556 106.444 17.428 106.916 16.46C107.388 15.484 108.064 14.724 108.944 14.18C109.824 13.628 110.868 13.352 112.076 13.352ZM120.129 26V8.168H123.009V15.392C123.209 15.08 123.473 14.78 123.801 14.492C124.129 14.196 124.529 13.956 125.001 13.772C125.481 13.58 126.053 13.484 126.717 13.484C127.509 13.484 128.233 13.636 128.889 13.94C129.545 14.244 130.069 14.684 130.461 15.26C130.853 15.828 131.049 16.508 131.049 17.3V26H128.121V17.792C128.121 17.152 127.893 16.656 127.437 16.304C126.989 15.952 126.421 15.776 125.733 15.776C125.277 15.776 124.841 15.856 124.425 16.016C124.009 16.176 123.673 16.416 123.417 16.736C123.169 17.048 123.045 17.44 123.045 17.912V26H120.129Z" fill="#1D1F2C"/>
<defs>
<clipPath id="clip0_96_54452">
<rect width="34" height="34" fill="white"/>
</clipPath>
</defs>
</svg>
